<svg xmlns="http://www.w3.org/2000/svg" width="32" height="32" viewBox="0 0 32 32">
  <g id="Group_6733" data-name="Group 6733" transform="translate(13253 -3215.741)">
    <g id="Group_6731" data-name="Group 6731" transform="translate(-13253 3215.741)">
      <g id="Ellipse_776" data-name="Ellipse 776" transform="translate(0 0)" fill="none" stroke="#f0f1f4" stroke-width="1">
        <circle cx="16" cy="16" r="16" stroke="none"/>
        <circle cx="16" cy="16" r="15.5" fill="none"/>
      </g>
    </g>
    <g id="moon-6681" transform="translate(-13244.293 3224.538)">
      <g id="Group_6729" data-name="Group 6729" transform="translate(0 0)">
        <path id="Path_20083" data-name="Path 20083" d="M11.748,14.751A7.375,7.375,0,1,1,12.67.061.82.82,0,0,1,13,1.568a4.4,4.4,0,0,0,4.4,7.616.82.82,0,0,1,1.14,1.04,7.369,7.369,0,0,1-6.791,4.526ZM10.412,1.792a5.737,5.737,0,1,0,5.5,9.523,6.016,6.016,0,0,1-5.8-3h0A6.018,6.018,0,0,1,10.412,1.792Z" transform="translate(-4.361 0.001)" fill="#061738"/>
      </g>
    </g>
  </g>
</svg>
