<svg xmlns="http://www.w3.org/2000/svg" width="190.199" height="50" viewBox="0 0 190.199 50"><defs><style>.a{fill:#061738;fill-rule:evenodd;}</style></defs><g transform="translate(-15759.288 3177.204)"><path class="a" d="M4100.445,3546.676l-4.1-3.1a8.637,8.637,0,0,0-1.215-.739,5.428,5.428,0,0,0-1.365-.59,6.441,6.441,0,0,0-1.67-.147h-23.388a6.73,6.73,0,0,0-5.011,2.064,6.932,6.932,0,0,0-2.126,4.868v31.407a7.21,7.21,0,0,0,2.126,4.869,6.036,6.036,0,0,0,.758.589l5.922,4.424c.275.259.526.355.679.5h0a6.6,6.6,0,0,0,6.809.587,6.07,6.07,0,0,0,3.444-5.661h0v-.742h0a2.33,2.33,0,0,1,2.276-2.359h.911c13.208,0,23.836-6.782,23.836-20.052v-.147c0-6.489-2.581-11.8-7.287-15.334a5.64,5.64,0,0,0-.6-.444Zm-35.679,37.6h0a5.275,5.275,0,0,1-1.67-3.832v-31.406a5.365,5.365,0,0,1,1.67-3.981,5.978,5.978,0,0,1,3.947-1.623h23.38c.457,0,.911.147,1.214.147a10.791,10.791,0,0,1,1.215.443,4.993,4.993,0,0,1,1.367,8.111h0a5.774,5.774,0,0,1-3.8,1.471h-13.664a3.946,3.946,0,0,0-2.885,1.179h0a3.84,3.84,0,0,0,0,5.6,3.952,3.952,0,0,0,2.884,1.179h6.681a5.39,5.39,0,0,1,3.644,1.472,4.885,4.885,0,0,1,0,7.079h0a4.782,4.782,0,0,1-3.644,1.471h-7.744a3.129,3.129,0,0,0-2.126.884h0a2.872,2.872,0,0,0-.91,2.065v5.9a5.276,5.276,0,0,1-1.671,3.832h0a5.6,5.6,0,0,1-3.948,1.623,5.746,5.746,0,0,1-3.189-.884,8.269,8.269,0,0,1-.759-.74Z" transform="translate(11697.717 -6719.302)"/><g transform="translate(15812.09 -3177.204)"><path class="a" d="M5041.978,3958.69v4.917h3.336a4.64,4.64,0,0,0,2.882-.717,2.415,2.415,0,0,0,0-3.48,4.63,4.63,0,0,0-2.882-.717h-3.336Zm0,8.509v4.311a1.786,1.786,0,0,1-.558,1.319,1.879,1.879,0,0,1-2.617-.01,1.828,1.828,0,0,1-.537-1.308v-14.54a1.852,1.852,0,0,1,.525-1.308,1.8,1.8,0,0,1,1.32-.559h5.418a8.653,8.653,0,0,1,4.048.852,5.493,5.493,0,0,1,2.368,2.276,6.424,6.424,0,0,1,0,5.849,5.483,5.483,0,0,1-2.366,2.276,8.639,8.639,0,0,1-4.05.853h-3.551Z" transform="translate(-5038.266 -3930.937)"/><path class="a" d="M6752.513,3970.426a14.935,14.935,0,0,1-5.963-1.2,1.859,1.859,0,0,1-.8-.66,1.787,1.787,0,0,1,.154-2.251,1.686,1.686,0,0,1,1.272-.548,1.879,1.879,0,0,1,.767.157,10.646,10.646,0,0,0,4.372.907c1.385,0,3.384-.157,3.384-1.958a.763.763,0,0,0-.274-.609,3.153,3.153,0,0,0-1.061-.6c-.708-.247-1.452-.447-2.176-.636a28.946,28.946,0,0,1-3.2-.991,6.239,6.239,0,0,1-2.334-1.587,4.289,4.289,0,0,1-1.059-3,5.214,5.214,0,0,1,.835-2.878,5.687,5.687,0,0,1,2.425-2.041,8.628,8.628,0,0,1,3.67-.729,14.51,14.51,0,0,1,5,.832,1.7,1.7,0,0,1,1.171,1.679,1.81,1.81,0,0,1-.444,1.189,1.628,1.628,0,0,1-1.281.583,1.753,1.753,0,0,1-.641-.141,10.765,10.765,0,0,0-3.566-.6,5.191,5.191,0,0,0-2.656.6,1.458,1.458,0,0,0-.8,1.333,1.07,1.07,0,0,0,.312.831,3.08,3.08,0,0,0,1.127.659,21.2,21.2,0,0,0,2.213.606,23.373,23.373,0,0,1,3.136.937,5.727,5.727,0,0,1,2.277,1.617,4.583,4.583,0,0,1,1.008,3.074,4.772,4.772,0,0,1-.906,2.841,5.779,5.779,0,0,1-2.46,1.911,8.766,8.766,0,0,1-3.493.657Z" transform="translate(-6621.976 -3927.892)"/><path class="a" d="M6551.1,3958.645v3.706h6.808a1.786,1.786,0,0,1,1.8,1.8,1.72,1.72,0,0,1-.535,1.271,1.788,1.788,0,0,1-1.261.5H6551.1v3.727h7.664a1.789,1.789,0,0,1,1.8,1.8,1.719,1.719,0,0,1-.536,1.271,1.783,1.783,0,0,1-1.263.5h-9.524a1.833,1.833,0,0,1-1.847-1.846v-14.427a1.857,1.857,0,0,1,.525-1.309,1.8,1.8,0,0,1,1.319-.559h9.526a1.791,1.791,0,0,1,1.8,1.8,1.716,1.716,0,0,1-.537,1.272,1.773,1.773,0,0,1-1.262.5H6551.1Z" transform="translate(-6438.258 -3930.911)"/><path class="a" d="M6300.339,3966.8l4.876-12.152a2,2,0,0,1,.664-.853,1.774,1.774,0,0,1,1.067-.353,1.814,1.814,0,0,1,1.345.536,1.877,1.877,0,0,1,.5,1.333,1.971,1.971,0,0,1-.129.7l-5.882,14.264a2.36,2.36,0,0,1-2.187,1.544h-.521a2.367,2.367,0,0,1-2.187-1.571l-5.878-14.263a2.006,2.006,0,0,1,.379-2.008,1.813,1.813,0,0,1,1.343-.536,1.774,1.774,0,0,1,1.067.353,2.062,2.062,0,0,1,.676.87l4.865,12.136Z" transform="translate(-6201.243 -3929.397)"/><path class="a" d="M6220.609,3971.829a1.827,1.827,0,0,1-1.844-1.844V3955.32a1.836,1.836,0,0,1,.526-1.309,1.79,1.79,0,0,1,1.317-.558,1.874,1.874,0,0,1,1.875,1.874v14.665a1.785,1.785,0,0,1-.559,1.318,1.848,1.848,0,0,1-1.31.526Z" transform="translate(-6133.404 -3929.408)"/><path class="a" d="M5993.412,3958.671h-4.072a1.744,1.744,0,0,1-1.771-1.772,1.784,1.784,0,0,1,.5-1.262,1.713,1.713,0,0,1,1.272-.536h11.836a1.791,1.791,0,0,1,1.8,1.8,1.711,1.711,0,0,1-.535,1.271,1.779,1.779,0,0,1-1.262.5h-4.047v12.844a1.793,1.793,0,0,1-.558,1.319,1.848,1.848,0,0,1-1.31.525,1.831,1.831,0,0,1-1.845-1.843v-12.844Z" transform="translate(-5918.929 -3930.936)"/><path class="a" d="M5919.906,3971.828a1.827,1.827,0,0,1-1.845-1.845v-14.665a1.84,1.84,0,0,1,.525-1.309,1.786,1.786,0,0,1,1.32-.558,1.874,1.874,0,0,1,1.874,1.874v14.666a1.786,1.786,0,0,1-.558,1.318,1.842,1.842,0,0,1-1.31.526Z" transform="translate(-5854.447 -3929.407)"/><path class="a" d="M5607.071,3966.59l4.686-11.687a2.508,2.508,0,0,1,.834-1.025,2.216,2.216,0,0,1,1.324-.433h.78a2.239,2.239,0,0,1,1.649.7,2.293,2.293,0,0,1,.672,1.645v14.19a1.859,1.859,0,0,1-3.153,1.319,1.784,1.784,0,0,1-.557-1.319v-9.525l-4,9.892a2.355,2.355,0,0,1-.9,1.072,2.442,2.442,0,0,1-2.681,0,2.377,2.377,0,0,1-.9-1.082l-4-9.883v9.525a1.786,1.786,0,0,1-.558,1.319,1.85,1.85,0,0,1-1.31.525,1.831,1.831,0,0,1-1.846-1.844v-14.188a2.3,2.3,0,0,1,.672-1.646,2.241,2.241,0,0,1,1.648-.7h.781a2.222,2.222,0,0,1,1.324.432,2.552,2.552,0,0,1,.846,1.052l4.677,11.66Z" transform="translate(-5556.714 -3929.402)"/><path class="a" d="M5501.876,3971.829a1.827,1.827,0,0,1-1.846-1.844V3955.32a1.852,1.852,0,0,1,.524-1.308,1.8,1.8,0,0,1,1.32-.559,1.873,1.873,0,0,1,1.875,1.874v14.665a1.793,1.793,0,0,1-.558,1.318,1.847,1.847,0,0,1-1.31.526Z" transform="translate(-5466.646 -3929.408)"/><path class="a" d="M5269.867,3963.174a1.8,1.8,0,0,0-1.793,1.793h0a1.8,1.8,0,0,0,1.793,1.792v.007h.552a2.439,2.439,0,0,1,2.712,1.987,9.935,9.935,0,0,1,.2,2.04v.713a1.811,1.811,0,0,0,.523,1.32,1.868,1.868,0,0,0,3.188-1.32v-1.093a10.121,10.121,0,0,0-.681-3.565,4.14,4.14,0,0,0-1.335-1.874,4.875,4.875,0,0,0,1.229-1.249,5.3,5.3,0,0,0,.937-3.037,5.088,5.088,0,0,0-1.9-4.095,8.393,8.393,0,0,0-5.341-1.507h-5.539a1.79,1.79,0,0,0-1.318.557,1.843,1.843,0,0,0-.524,1.311V3971.5a1.826,1.826,0,0,0,1.842,1.844,1.843,1.843,0,0,0,1.31-.525,1.778,1.778,0,0,0,.56-1.319v-12.821h3.408a6,6,0,0,1,3.068.611,1.79,1.79,0,0,1,.72,1.562,1.825,1.825,0,0,1-.858,1.637,5.06,5.06,0,0,1-2.744.677Z" transform="translate(-5246.345 -3930.926)"/><path class="a" d="M6256.009,3624.381v5.547a1.791,1.791,0,0,1-.558,1.319,1.851,1.851,0,0,1-3.155-1.318v-14.665a1.854,1.854,0,0,1,.525-1.31,1.794,1.794,0,0,1,1.32-.558,1.874,1.874,0,0,1,1.875,1.874v9.118Z" transform="translate(-6164.506 -3613.255)"/><path class="a" d="M6015.712,3630.361a9.542,9.542,0,0,1-4.64-1.129,8.237,8.237,0,0,1-3.279-3.279,10.8,10.8,0,0,1,0-9.81,8.232,8.232,0,0,1,3.279-3.28,9.548,9.548,0,0,1,4.64-1.129,10.873,10.873,0,0,1,3.11.414,13.323,13.323,0,0,1,2.687,1.158,1.738,1.738,0,0,1,.921,1.579,1.661,1.661,0,0,1-.479,1.166,1.78,1.78,0,0,1-2.03.329,10.212,10.212,0,0,0-1.9-.781,7.678,7.678,0,0,0-2.093-.257,6.047,6.047,0,0,0-3.089.737,4.619,4.619,0,0,0-1.861,1.981,7.164,7.164,0,0,0,0,5.943,4.629,4.629,0,0,0,1.86,1.981,6.06,6.06,0,0,0,3.091.736,7.713,7.713,0,0,0,2.093-.253,10.3,10.3,0,0,0,1.913-.782,1.8,1.8,0,0,1,2.011.313,1.644,1.644,0,0,1,.488,1.189,1.738,1.738,0,0,1-.918,1.579,13.434,13.434,0,0,1-2.689,1.16,10.863,10.863,0,0,1-3.112.413Z" transform="translate(-5936.604 -3611.733)"/><path class="a" d="M5813.325,3618.6v3.7h6.806a1.791,1.791,0,0,1,1.8,1.8,1.718,1.718,0,0,1-.539,1.273,1.774,1.774,0,0,1-1.261.5h-6.809v3.728h7.665a1.786,1.786,0,0,1,1.8,1.8,1.722,1.722,0,0,1-.535,1.272,1.774,1.774,0,0,1-1.262.5h-9.534a1.827,1.827,0,0,1-1.842-1.845V3616.9a1.848,1.848,0,0,1,.525-1.31,1.792,1.792,0,0,1,1.316-.558h9.534a1.789,1.789,0,0,1,1.795,1.8,1.717,1.717,0,0,1-.535,1.271,1.777,1.777,0,0,1-1.261.5Z" transform="translate(-5753.833 -3614.778)"/><path class="a" d="M5584.229,3618.6h-4.074a1.754,1.754,0,0,1-1.775-1.774,1.772,1.772,0,0,1,.5-1.261,1.71,1.71,0,0,1,1.271-.536h11.837a1.788,1.788,0,0,1,1.8,1.8,1.721,1.721,0,0,1-.535,1.271,1.781,1.781,0,0,1-1.262.5h-4.049v12.844a1.789,1.789,0,0,1-.559,1.319,1.85,1.85,0,0,1-3.154-1.318V3618.6Z" transform="translate(-5539.335 -3614.771)"/><path class="a" d="M5350.955,3625.607v-10.355a1.845,1.845,0,0,1,.524-1.311,1.79,1.79,0,0,1,1.319-.559,1.873,1.873,0,0,1,1.873,1.874v14.189a2.239,2.239,0,0,1-.7,1.648,2.3,2.3,0,0,1-1.645.67h-.285a2.26,2.26,0,0,1-1.081-.269,2.46,2.46,0,0,1-.817-.707l-7.785-11.242v10.379a1.783,1.783,0,0,1-.557,1.319,1.849,1.849,0,0,1-1.31.525,1.832,1.832,0,0,1-1.845-1.844v-14.189a2.3,2.3,0,0,1,.672-1.646,2.237,2.237,0,0,1,1.648-.7h.313a2.4,2.4,0,0,1,1.944,1.046l7.738,11.176Z" transform="translate(-5316.934 -3613.247)"/><path class="a" d="M5243.381,3631.757a1.828,1.828,0,0,1-1.843-1.844v-14.666a1.855,1.855,0,0,1,.524-1.311,1.789,1.789,0,0,1,1.32-.558,1.874,1.874,0,0,1,1.874,1.874v14.665a1.8,1.8,0,0,1-.557,1.319,1.855,1.855,0,0,1-1.31.526Z" transform="translate(-5226.844 -3613.244)"/><path class="a" d="M6330.084,3624.369a1.788,1.788,0,0,1-1.787-1.786h0a1.788,1.788,0,0,1,1.785-1.785h3.891v-5.548a1.848,1.848,0,0,1,.526-1.31,1.793,1.793,0,0,1,1.319-.558,1.874,1.874,0,0,1,1.874,1.874v14.665a1.792,1.792,0,0,1-.558,1.319,1.849,1.849,0,0,1-3.153-1.318v-5.548Z" transform="translate(-6235.021 -3613.244)"/><path class="a" d="M5041.976,3618.6v3.7h6.546a1.79,1.79,0,0,1,1.8,1.8,1.712,1.712,0,0,1-.536,1.272,1.774,1.774,0,0,1-1.261.5h-6.546v5.571a1.788,1.788,0,0,1-.557,1.319,1.85,1.85,0,0,1-3.155-1.319V3616.9a1.859,1.859,0,0,1,.524-1.31,1.8,1.8,0,0,1,1.321-.557h9.245a1.791,1.791,0,0,1,1.8,1.8,1.719,1.719,0,0,1-.535,1.271,1.783,1.783,0,0,1-1.263.5Z" transform="translate(-5038.265 -3614.777)"/></g></g></svg>