<svg id="logo" xmlns="http://www.w3.org/2000/svg" xmlns:xlink="http://www.w3.org/1999/xlink" width="36.829" height="40" viewBox="0 0 36.829 40">
  <defs>
    <clipPath id="clip-path">
      <path id="Path_1" data-name="Path 1" d="M29.09,4.012h0C25.392,1.2,25.383,1.18,25.383,1.18a6.475,6.475,0,0,0-.944-.6A4.3,4.3,0,0,0,23.35.118,4.969,4.969,0,0,0,22.035,0H3.62A5.263,5.263,0,0,0-.326,1.652,5.59,5.59,0,0,0-2,5.546V30.678A5.821,5.821,0,0,0-.326,34.572c.239.118.359.354.6.472l4.663,3.54c.12.236.359.354.478.472h0A5.28,5.28,0,0,0,8.4,40a5.07,5.07,0,0,0,5.142-5.074h0v-.59h0a1.852,1.852,0,0,1,1.794-1.888h.717c10.4,0,18.773-5.428,18.773-16.047v-.118A14.844,14.844,0,0,0,29.09,4.012ZM1.109,34.336h0v-.118H.989V34.1H.75v-.118H.631v-.118H.511v-.118h0A4.257,4.257,0,0,1-.8,30.678V5.546A4.328,4.328,0,0,1,.511,2.36a4.668,4.668,0,0,1,3.109-1.3H22.035c.359,0,.717.118.957.118a8.308,8.308,0,0,1,.957.354,4.144,4.144,0,0,1,1.674,1.534,4.035,4.035,0,0,1,.6,2.124,4.093,4.093,0,0,1-1.2,2.832h0A4.5,4.5,0,0,1,22.035,9.2H11.273A3.082,3.082,0,0,0,9,10.147H9a3.105,3.105,0,0,0,0,4.484,3.082,3.082,0,0,0,2.272.944h5.261a4.2,4.2,0,0,1,2.87,1.18,3.951,3.951,0,0,1,0,5.664h0a3.733,3.733,0,0,1-2.87,1.18h-6.1a2.438,2.438,0,0,0-1.674.708h0a2.315,2.315,0,0,0-.717,1.652v.118h0v.118h0v.118h0v.118h0v.118h0v.118h0v.118h0V26.9h0v.118h0v.118h0v.118h0v.118h0v.118h0v.118h0v.118h0v2.95a4.257,4.257,0,0,1-1.315,3.068h0a4.371,4.371,0,0,1-3.109,1.3A4.464,4.464,0,0,1,1.109,34.336Z" transform="translate(2)" fill="#2955d9" clip-rule="evenodd"/>
    </clipPath>
  </defs>
  <g id="Mask_Group_3008" data-name="Mask Group 3008" transform="translate(0)" clip-path="url(#clip-path)">
    <path id="Path_20072" data-name="Path 20072" d="M19.83,0,32.747.07A20.138,20.138,0,0,1,52.793,19.991l.076,13.956a19.617,19.617,0,0,1-19.83,19.705l-12.917-.07A20.138,20.138,0,0,1,.076,33.661L0,19.706A19.617,19.617,0,0,1,19.83,0Z" transform="translate(-31.596 -12.148) rotate(-30)" fill="#2955d9"/>
    <path id="Path_20073" data-name="Path 20073" d="M8.924,0,43.772.189a9.062,9.062,0,0,1,9.021,8.964l.195,35.75a8.828,8.828,0,0,1-8.923,8.867L9.215,53.582A9.062,9.062,0,0,1,.195,44.618L0,8.868A8.828,8.828,0,0,1,8.924,0Z" transform="translate(-5.778 32.097) rotate(-30)" fill="#2955d9"/>
    <path id="Path_20074" data-name="Path 20074" d="M0,0,45.906.248l.248,45.6L.248,45.6Z" transform="translate(4.166 -19.347) rotate(-30)" fill="#3e74ff"/>
    <path id="Path_20075" data-name="Path 20075" d="M.248.248,45.819,0l-.248,45.876L0,46.124Z" transform="translate(17.287 10.762) rotate(60)" fill="#3e74ff"/>
  </g>
</svg>
