<svg xmlns="http://www.w3.org/2000/svg" xmlns:xlink="http://www.w3.org/1999/xlink" width="36.861" height="40.003" viewBox="0 0 36.861 40.003">
  <defs>
    <clipPath id="clip-path">
      <path id="Path_20096" data-name="Path 20096" d="M31.09,4h0c-3.7-2.82-3.71-2.84-3.71-2.84a7.51,7.51,0,0,0-.94-.6A4.76,4.76,0,0,0,25.35.12,5.79,5.79,0,0,0,24,0H5.62A5.28,5.28,0,0,0,1.67,1.66,5.61,5.61,0,0,0,0,5.55V30.68a5.85,5.85,0,0,0,1.67,3.9c.24.11.36.35.6.47l4.67,3.54c.12.23.36.35.48.47h0a5.19,5.19,0,0,0,3,.94,5.06,5.06,0,0,0,5.14-5v-.08h0v-.59h0a1.86,1.86,0,0,1,1.8-1.89h.71c10.4,0,18.78-5.43,18.78-16v-.12A14.84,14.84,0,0,0,31.09,4Zm-28,30.32h0V34.2H3v-.1H2.75V34H2.63v-.12H2.51v-.12h0A4.23,4.23,0,0,1,1.2,30.68V5.55A4.35,4.35,0,0,1,2.51,2.36a4.75,4.75,0,0,1,3.11-1.3H24c.36,0,.72.12,1,.12a7.89,7.89,0,0,1,1,.36,4.09,4.09,0,0,1,2.27,3.65A4.06,4.06,0,0,1,27,8h0a4.5,4.5,0,0,1-3,1.2H13.27a3.09,3.09,0,0,0-2.27,1h0a3.1,3.1,0,0,0-.09,4.39l.09.1a3.12,3.12,0,0,0,2.27.94h5.26a4.15,4.15,0,0,1,2.87,1.18,4,4,0,0,1,.08,5.59l-.08.07h0a3.7,3.7,0,0,1-2.87,1.18h-6.1a2.47,2.47,0,0,0-1.67.71h0A2.34,2.34,0,0,0,10,26v.12h0v.12h0v.12h0v.12h0v.11h0v.12h0v.12h0v.11h0V27h0v.12h0v.12h0v.12h0v.11h0v.12h0v.12h0v2.95a4.27,4.27,0,0,1-1.31,3.07h0a4.37,4.37,0,0,1-3.11,1.3,4.47,4.47,0,0,1-2.47-.69Z" transform="translate(24.42 42.08)" fill="none"/>
    </clipPath>
  </defs>
  <g id="Group_6737" data-name="Group 6737" transform="translate(-24.42 -42.078)" clip-path="url(#clip-path)">
    <g id="Mask_Group_3008" data-name="Mask Group 3008">
      <path id="Path_20072" data-name="Path 20072" d="M-14.42-22.06l11.22-6.4a20.14,20.14,0,0,1,27.32,7.23l7,12.05A19.62,19.62,0,0,1,24.1,17.65l-.26.15L12.62,24.2A20.13,20.13,0,0,1-14.7,17l-7-12a19.62,19.62,0,0,1,7-26.83Z" transform="translate(24.42 42.08)" fill="#3e74ff"/>
      <path id="Path_20073" data-name="Path 20073" d="M2,27.64,32.22,10.38a9.06,9.06,0,0,1,12.3,3.25l18,30.86a8.83,8.83,0,0,1-3.17,12.08l-.12.07L29,73.9a9.06,9.06,0,0,1-12.3-3.26l-18-30.86A8.82,8.82,0,0,1,1.83,27.71Z" transform="translate(24.42 42.08)" fill="#3e74ff"/>
      <path id="Path_20074" data-name="Path 20074" d="M4.17-19.34,44.05-42.08l23,39.37L27.18,20Z" transform="translate(24.42 42.08)" fill="#5081ff"/>
      <path id="Path_20075" data-name="Path 20075" d="M17.2,11.11l23,39.34L.34,73.17l-23-39.34Z" transform="translate(24.42 42.08)" fill="#5081ff"/>
    </g>
  </g>
</svg>
