<svg xmlns="http://www.w3.org/2000/svg" xmlns:xlink="http://www.w3.org/1999/xlink" width="134" height="40" viewBox="0 0 134 40">
  <defs>
    <clipPath id="clip-path">
      <path id="Path_1" data-name="Path 1" d="M29.09,4.012h0C25.392,1.2,25.383,1.18,25.383,1.18a6.475,6.475,0,0,0-.944-.6A4.3,4.3,0,0,0,23.35.118,4.969,4.969,0,0,0,22.035,0H3.62A5.263,5.263,0,0,0-.326,1.652,5.59,5.59,0,0,0-2,5.546V30.678A5.821,5.821,0,0,0-.326,34.572c.239.118.359.354.6.472l4.663,3.54c.12.236.359.354.478.472h0A5.28,5.28,0,0,0,8.4,40a5.07,5.07,0,0,0,5.142-5.074h0v-.59h0a1.852,1.852,0,0,1,1.794-1.888h.717c10.4,0,18.773-5.428,18.773-16.047v-.118A14.844,14.844,0,0,0,29.09,4.012ZM1.109,34.336h0v-.118H.989V34.1H.75v-.118H.631v-.118H.511v-.118h0A4.257,4.257,0,0,1-.8,30.678V5.546A4.328,4.328,0,0,1,.511,2.36a4.668,4.668,0,0,1,3.109-1.3H22.035c.359,0,.717.118.957.118a8.308,8.308,0,0,1,.957.354,4.144,4.144,0,0,1,1.674,1.534,4.035,4.035,0,0,1,.6,2.124,4.093,4.093,0,0,1-1.2,2.832h0A4.5,4.5,0,0,1,22.035,9.2H11.273A3.082,3.082,0,0,0,9,10.147H9a3.105,3.105,0,0,0,0,4.484,3.082,3.082,0,0,0,2.272.944h5.261a4.2,4.2,0,0,1,2.87,1.18,3.951,3.951,0,0,1,0,5.664h0a3.733,3.733,0,0,1-2.87,1.18h-6.1a2.438,2.438,0,0,0-1.674.708h0a2.315,2.315,0,0,0-.717,1.652v.118h0v.118h0v.118h0v.118h0v.118h0v.118h0v.118h0V26.9h0v.118h0v.118h0v.118h0v.118h0v.118h0v.118h0v.118h0v2.95a4.257,4.257,0,0,1-1.315,3.068h0a4.371,4.371,0,0,1-3.109,1.3A4.464,4.464,0,0,1,1.109,34.336Z" transform="translate(2)" fill="#2955d9"/>
    </clipPath>
  </defs>
  <g id="Group_6449" data-name="Group 6449" transform="translate(-249.255 -23.563)">
    <g id="Group_6445" data-name="Group 6445" transform="translate(294.499 25.548)">
      <g id="Group_6442" data-name="Group 6442" transform="translate(0)">
        <path id="Path_20047" data-name="Path 20047" d="M49.82,20.709V7.2h9.569V9.677H52.634V12.6h6.552V15.08h-6.5v5.629Z" transform="translate(-49.82 -6.401)" fill="#fff"/>
        <path id="Path_20048" data-name="Path 20048" d="M59.81,8.032a1.542,1.542,0,1,1,1.542,1.542A1.554,1.554,0,0,1,59.81,8.032ZM60.024,20.8V11.016H62.6V20.8Z" transform="translate(-48.564 -6.49)" fill="#fff"/>
        <path id="Path_20049" data-name="Path 20049" d="M71.208,20.323V14.4A1.6,1.6,0,0,0,69.4,12.578,2.8,2.8,0,0,0,67.144,13.7v6.62H64.6V10.54h2.567v1.272a4.5,4.5,0,0,1,3.434-1.52,2.848,2.848,0,0,1,3.175,3.118v6.912Z" transform="translate(-47.961 -6.014)" fill="#fff"/>
        <path id="Path_20050" data-name="Path 20050" d="M75.655,18.116V13.05H74V10.8h1.621V8.13H78.21v2.679H80.2v2.252H78.244v4.424c0,.608.326,1.069.9,1.069a1.385,1.385,0,0,0,.889-.281l.54,1.948a3.141,3.141,0,0,1-2.15.63,2.443,2.443,0,0,1-2.769-2.736Z" transform="translate(-46.779 -6.284)" fill="#fff"/>
        <path id="Path_20051" data-name="Path 20051" d="M85.563,10.29c2.927,0,4.908,2.184,4.908,5.392v.563H83.244A2.634,2.634,0,0,0,86.058,18.5a3.974,3.974,0,0,0,2.612-.968L89.8,19.184a6.023,6.023,0,0,1-4.03,1.362A4.965,4.965,0,0,1,80.53,15.39a4.976,4.976,0,0,1,5.032-5.1ZM83.2,14.467h4.83a2.252,2.252,0,0,0-2.465-2.128A2.353,2.353,0,0,0,83.2,14.467Z" transform="translate(-45.958 -6.012)" fill="#fff"/>
        <path id="Path_20052" data-name="Path 20052" d="M95.69,10.291a4.5,4.5,0,0,1,3.873,1.779l-1.689,1.565a2.42,2.42,0,0,0-2.06-1.058,2.612,2.612,0,0,0-2.657,2.837,2.634,2.634,0,0,0,2.657,2.859,2.465,2.465,0,0,0,2.06-1.047l1.689,1.554a4.5,4.5,0,0,1-3.873,1.79,4.965,4.965,0,0,1-5.19-5.156,4.965,4.965,0,0,1,5.19-5.122Z" transform="translate(-44.704 -6.013)" fill="#fff"/>
        <path id="Path_20053" data-name="Path 20053" d="M106.676,20.709V14.754c0-1.362-.721-1.79-1.835-1.79a2.871,2.871,0,0,0-2.252,1.126v6.62H100V7.2h2.567v5.01a4.5,4.5,0,0,1,3.456-1.52,2.814,2.814,0,0,1,3.22,3.04v6.98Z" transform="translate(-43.509 -6.401)" fill="#fff"/>
        <path id="Path_20054" data-name="Path 20054" d="M49.82,36.71V23.2h6.327a4.346,4.346,0,1,1,0,8.68H52.691v4.841Zm5.933-11.044H52.691v3.726h3.062a1.869,1.869,0,1,0,0-3.726Z" transform="translate(-49.82 -4.925)" fill="#fff"/>
        <path id="Path_20055" data-name="Path 20055" d="M61,36.318V26.535h2.567v1.328A4.188,4.188,0,0,1,66.7,26.31v2.51a3.377,3.377,0,0,0-3.13,1.036v6.462Z" transform="translate(-48.414 -4.533)" fill="#fff"/>
        <path id="Path_20056" data-name="Path 20056" d="M67.24,24.032a1.542,1.542,0,1,1,1.542,1.542A1.542,1.542,0,0,1,67.24,24.032ZM67.51,36.8V27.016h2.567V36.8Z" transform="translate(-47.629 -5.014)" fill="#fff"/>
        <path id="Path_20057" data-name="Path 20057" d="M84.181,36.322V30.142c0-.912-.417-1.565-1.464-1.565A2.589,2.589,0,0,0,80.691,29.7v6.62h-2.6V30.142c0-.912-.405-1.565-1.452-1.565A2.6,2.6,0,0,0,74.612,29.7v6.62H72V26.539h2.578v1.272a4.278,4.278,0,0,1,3.2-1.52,2.578,2.578,0,0,1,2.713,1.779,4.177,4.177,0,0,1,3.377-1.779,2.623,2.623,0,0,1,2.882,2.961v7.07Z" transform="translate(-47.03 -4.537)" fill="#fff"/>
        <path id="Path_20058" data-name="Path 20058" d="M87.13,24.032a1.542,1.542,0,1,1,1.542,1.542A1.542,1.542,0,0,1,87.13,24.032ZM87.4,36.8V27.016h2.567V36.8Z" transform="translate(-45.127 -5.014)" fill="#fff"/>
        <path id="Path_20059" data-name="Path 20059" d="M92.551,34.116V29.05H90.93V26.8h1.621V24.13H95.14v2.679h1.993v2.252H95.14v4.424c0,.608.326,1.126.9,1.126a1.385,1.385,0,0,0,.889-.281l.54,1.948a3.13,3.13,0,0,1-2.139.63,2.443,2.443,0,0,1-2.781-2.792Z" transform="translate(-44.649 -4.807)" fill="#fff"/>
        <path id="Path_20060" data-name="Path 20060" d="M97.77,24.032a1.542,1.542,0,1,1,1.542,1.542A1.542,1.542,0,0,1,97.77,24.032ZM98.029,36.8V27.016h2.578V36.8Z" transform="translate(-43.789 -5.014)" fill="#fff"/>
        <path id="Path_20061" data-name="Path 20061" d="M105.25,36.293l-3.94-9.783h2.758l2.522,6.811,2.555-6.811h2.781l-3.94,9.783Z" transform="translate(-43.344 -4.508)" fill="#fff"/>
        <path id="Path_20062" data-name="Path 20062" d="M116.322,26.293c2.927,0,4.908,2.184,4.908,5.392v.563h-7.272a2.634,2.634,0,0,0,2.814,2.252,3.951,3.951,0,0,0,2.612-.979l1.126,1.666a6.023,6.023,0,0,1-4.03,1.362,5.145,5.145,0,1,1-.169-10.278Zm-2.409,4.177h4.83a2.252,2.252,0,0,0-2.42-2.161A2.353,2.353,0,0,0,113.913,30.469Z" transform="translate(-42.122 -4.538)" fill="#fff"/>
        <path id="Path_20063" data-name="Path 20063" d="M122.126,33.244a5.629,5.629,0,0,0,3.377,1.328c1.126,0,1.644-.383,1.644-.991s-.844-.934-1.959-1.126c-1.689-.315-3.85-.72-3.85-3.051,0-1.644,1.43-3.085,4.008-3.085a6.079,6.079,0,0,1,3.929,1.34l-1.013,1.756a4.154,4.154,0,0,0-2.893-1.126c-.934,0-1.542.338-1.542.912s.777.822,1.869,1.047c1.677.326,3.929.777,3.929,3.208,0,1.8-1.52,3.141-4.233,3.141A6.62,6.62,0,0,1,121,35.045Z" transform="translate(-40.867 -4.532)" fill="#fff"/>
      </g>
    </g>
    <g id="logo" transform="translate(249.255 23.563)">
      <g id="Mask_Group_3008" data-name="Mask Group 3008" transform="translate(0)" clip-path="url(#clip-path)">
        <path id="Path_20072" data-name="Path 20072" d="M19.83,0,32.747.07A20.138,20.138,0,0,1,52.793,19.991l.076,13.956a19.617,19.617,0,0,1-19.83,19.705l-12.917-.07A20.138,20.138,0,0,1,.076,33.661L0,19.706A19.617,19.617,0,0,1,19.83,0Z" transform="translate(-31.596 -12.148) rotate(-30)" fill="#2955d9"/>
        <path id="Path_20073" data-name="Path 20073" d="M8.924,0,43.772.189a9.062,9.062,0,0,1,9.021,8.964l.195,35.75a8.828,8.828,0,0,1-8.923,8.867L9.215,53.582A9.062,9.062,0,0,1,.195,44.618L0,8.868A8.828,8.828,0,0,1,8.924,0Z" transform="translate(-5.778 32.097) rotate(-30)" fill="#2955d9"/>
        <path id="Path_20074" data-name="Path 20074" d="M0,0,45.906.248l.248,45.6L.248,45.6Z" transform="translate(4.166 -19.347) rotate(-30)" fill="#3e74ff"/>
        <path id="Path_20075" data-name="Path 20075" d="M.248.248,45.819,0l-.248,45.876L0,46.124Z" transform="translate(17.287 10.762) rotate(60)" fill="#3e74ff"/>
      </g>
    </g>
  </g>
</svg>
