<svg xmlns="http://www.w3.org/2000/svg" xmlns:xlink="http://www.w3.org/1999/xlink" width="139.25" height="40.003" viewBox="0 0 139.25 40.003">
  <defs>
    <clipPath id="clip-path">
      <path id="Path_20096" data-name="Path 20096" d="M31.09,4h0c-3.7-2.82-3.71-2.84-3.71-2.84a7.51,7.51,0,0,0-.94-.6A4.76,4.76,0,0,0,25.35.12,5.79,5.79,0,0,0,24,0H5.62A5.28,5.28,0,0,0,1.67,1.66,5.61,5.61,0,0,0,0,5.55V30.68a5.85,5.85,0,0,0,1.67,3.9c.24.11.36.35.6.47l4.67,3.54c.12.23.36.35.48.47h0a5.19,5.19,0,0,0,3,.94,5.06,5.06,0,0,0,5.14-5v-.08h0v-.59h0a1.86,1.86,0,0,1,1.8-1.89h.71c10.4,0,18.78-5.43,18.78-16v-.12A14.84,14.84,0,0,0,31.09,4Zm-28,30.32h0V34.2H3v-.1H2.75V34H2.63v-.12H2.51v-.12h0A4.23,4.23,0,0,1,1.2,30.68V5.55A4.35,4.35,0,0,1,2.51,2.36a4.75,4.75,0,0,1,3.11-1.3H24c.36,0,.72.12,1,.12a7.89,7.89,0,0,1,1,.36,4.09,4.09,0,0,1,2.27,3.65A4.06,4.06,0,0,1,27,8h0a4.5,4.5,0,0,1-3,1.2H13.27a3.09,3.09,0,0,0-2.27,1h0a3.1,3.1,0,0,0-.09,4.39l.09.1a3.12,3.12,0,0,0,2.27.94h5.26a4.15,4.15,0,0,1,2.87,1.18,4,4,0,0,1,.08,5.59l-.08.07h0a3.7,3.7,0,0,1-2.87,1.18h-6.1a2.47,2.47,0,0,0-1.67.71h0A2.34,2.34,0,0,0,10,26v.12h0v.12h0v.12h0v.12h0v.11h0v.12h0v.12h0v.11h0V27h0v.12h0v.12h0v.12h0v.11h0v.12h0v.12h0v2.95a4.27,4.27,0,0,1-1.31,3.07h0a4.37,4.37,0,0,1-3.11,1.3,4.47,4.47,0,0,1-2.47-.69Z" transform="translate(24.42 42.08)" fill="none"/>
    </clipPath>
  </defs>
  <g id="dark_logo" data-name="dark logo" transform="translate(-24.42 -42.078)">
    <g id="Layer_1" data-name="Layer 1">
      <path id="Path_20101" data-name="Path 20101" d="M31.014,42.68s-5.748-.479-5.939,5.173,0,25.674,0,25.674-.1,4.12,7.377,4.694S40.5,68.929,40.5,68.929l7.281-1.437,7.28-8.431,1.055-8.334-2.587-4.981-3.065-2.683-1.437-.383Z" fill="#fff"/>
      <g id="Group_6445" data-name="Group 6445">
        <g id="Group_6442" data-name="Group 6442">
          <path id="Path_20047" data-name="Path 20047" d="M45.24,16.3V2.79h9.57V5.27H48.06V8.19h6.55v2.48h-6.5V16.3Z" transform="translate(24.42 42.08)" fill="#fff"/>
          <path id="Path_20048" data-name="Path 20048" d="M56.49,3.53A1.54,1.54,0,1,1,58,5.07h0a1.55,1.55,0,0,1-1.51-1.54ZM56.7,16.3V6.52h2.58V16.3Z" transform="translate(24.42 42.08)" fill="#fff"/>
          <path id="Path_20049" data-name="Path 20049" d="M68.49,16.3V10.38a1.6,1.6,0,0,0-1.34-1.82,1.48,1.48,0,0,0-.47,0,2.82,2.82,0,0,0-2.25,1.13V16.3H61.88V6.52h2.57V7.79a4.5,4.5,0,0,1,3.43-1.52,2.84,2.84,0,0,1,3.17,2.48,2.739,2.739,0,0,1,0,.64V16.3Z" transform="translate(24.42 42.08)" fill="#fff"/>
          <path id="Path_20050" data-name="Path 20050" d="M74.12,13.82V8.76H72.46V6.51h1.63V3.84h2.58V6.52h2V8.77h-2v4.42c0,.61.32,1.07.9,1.07A1.43,1.43,0,0,0,78.5,14l.5,1.93a3.19,3.19,0,0,1-2.15.63,2.45,2.45,0,0,1-2.77-2.07,2.51,2.51,0,0,1,0-.67Z" transform="translate(24.42 42.08)" fill="#fff"/>
          <path id="Path_20051" data-name="Path 20051" d="M84.85,6.27c2.93,0,4.91,2.18,4.91,5.39v.56H82.53a2.64,2.64,0,0,0,2.81,2.26,4,4,0,0,0,2.62-1l1.13,1.65a6,6,0,0,1-4,1.36,5,5,0,0,1-5.24-4.67,3.841,3.841,0,0,1,0-.48,5,5,0,0,1,4.85-5.1Zm-2.36,4.18h4.83A2.26,2.26,0,0,0,85,8.31h-.1a2.34,2.34,0,0,0-2.41,2.14Z" transform="translate(24.42 42.08)" fill="#fff"/>
          <path id="Path_20052" data-name="Path 20052" d="M96.23,6.27a4.47,4.47,0,0,1,3.87,1.78L98.41,9.61a2.41,2.41,0,0,0-2.06-1.06,2.61,2.61,0,0,0-2.65,2.84,2.63,2.63,0,0,0,2.4,2.85h.25a2.45,2.45,0,0,0,2.06-1.05l1.69,1.56a4.5,4.5,0,0,1-3.87,1.79A5,5,0,0,1,91,11.82a3.089,3.089,0,0,1,0-.43,5,5,0,0,1,4.8-5.12Z" transform="translate(24.42 42.08)" fill="#fff"/>
          <path id="Path_20053" data-name="Path 20053" d="M108.41,16.3v-6c0-1.36-.72-1.79-1.83-1.79a2.9,2.9,0,0,0-2.26,1.13V16.3h-2.59V2.79h2.57v5a4.53,4.53,0,0,1,3.46-1.52A2.82,2.82,0,0,1,111,8.64a3.1,3.1,0,0,1,0,.68v7Z" transform="translate(24.42 42.08)" fill="#fff"/>
          <path id="Path_20054" data-name="Path 20054" d="M45.24,33.78V20.27h6.33A4.37,4.37,0,1,1,52,29H48.11v4.84Zm5.94-11H48.11v3.73h3.07a1.871,1.871,0,1,0,.3-3.73,1.5,1.5,0,0,0-.3-.05Z" transform="translate(24.42 42.08)" fill="#fff"/>
          <path id="Path_20055" data-name="Path 20055" d="M57.83,33.78V24H60.4v1.33a4.15,4.15,0,0,1,3.13-1.55v2.51a3.39,3.39,0,0,0-3.13,1v6.47Z" transform="translate(24.42 42.08)" fill="#fff"/>
          <path id="Path_20056" data-name="Path 20056" d="M64.85,21a1.55,1.55,0,1,1,1.55,1.54h0A1.55,1.55,0,0,1,64.85,21Zm.27,12.77V24h2.57v9.79Z" transform="translate(24.42 42.08)" fill="#fff"/>
          <path id="Path_20057" data-name="Path 20057" d="M82.39,33.78V27.6c0-.92-.41-1.57-1.46-1.57a2.64,2.64,0,0,0-2,1.12v6.62H76.3V27.6c0-.92-.4-1.57-1.45-1.57a2.6,2.6,0,0,0-2,1.12v6.62H70.21V24h2.58v1.27A4.35,4.35,0,0,1,76,23.74a2.58,2.58,0,0,1,2.71,1.78,4.23,4.23,0,0,1,3.38-1.78A2.63,2.63,0,0,1,85,26.07a2.29,2.29,0,0,1,0,.64v7.07Z" transform="translate(24.42 42.08)" fill="#fff"/>
          <path id="Path_20058" data-name="Path 20058" d="M87.25,21a1.54,1.54,0,1,1,1.54,1.54h0A1.54,1.54,0,0,1,87.25,21Zm.27,12.77V24h2.56v9.79Z" transform="translate(24.42 42.08)" fill="#fff"/>
          <path id="Path_20059" data-name="Path 20059" d="M93.15,31.3V26.23H91.52V24h1.63V21.31h2.58V24h2v2.25h-2v4.43c0,.61.33,1.12.9,1.12a1.3,1.3,0,0,0,.89-.28l.54,1.95a3.1,3.1,0,0,1-2.14.63A2.45,2.45,0,0,1,93.14,32a3.05,3.05,0,0,1,0-.74Z" transform="translate(24.42 42.08)" fill="#fff"/>
          <path id="Path_20060" data-name="Path 20060" d="M99.22,21a1.55,1.55,0,1,1,1.55,1.54h0A1.55,1.55,0,0,1,99.22,21Zm.26,12.77V24h2.58v9.79Z" transform="translate(24.42 42.08)" fill="#fff"/>
          <path id="Path_20061" data-name="Path 20061" d="M107.15,33.78,103.21,24H106l2.52,6.81L111,24h2.79l-3.94,9.79Z" transform="translate(24.42 42.08)" fill="#fff"/>
          <path id="Path_20062" data-name="Path 20062" d="M119.44,23.75c2.93,0,4.91,2.18,4.91,5.39v.56h-7.27a2.63,2.63,0,0,0,2.81,2.3,4,4,0,0,0,2.62-1l1.12,1.67a6,6,0,0,1-4,1.36,5.16,5.16,0,1,1-.63-10.3h.46ZM117,27.92h4.83a2.24,2.24,0,0,0-2.33-2.16h-.09A2.37,2.37,0,0,0,117,27.92Z" transform="translate(24.42 42.08)" fill="#fff"/>
          <path id="Path_20063" data-name="Path 20063" d="M126.5,30.7a5.62,5.62,0,0,0,3.38,1.3c1.13,0,1.64-.38,1.64-1s-.84-.93-2-1.13c-1.68-.31-3.85-.72-3.85-3.05,0-1.64,1.43-3.08,4-3.08a6,6,0,0,1,3.93,1.34l-1,1.75a4.18,4.18,0,0,0-2.89-1.12c-.94,0-1.55.34-1.55.91s.78.82,1.87,1.05c1.68.32,3.93.77,3.93,3.2,0,1.8-1.52,3.15-4.23,3.15a6.58,6.58,0,0,1-4.39-1.56Z" transform="translate(24.42 42.08)" fill="#fff"/>
        </g>
      </g>
      <g id="Group_6737" data-name="Group 6737" clip-path="url(#clip-path)">
        <g id="Mask_Group_3008" data-name="Mask Group 3008">
          <path id="Path_20072" data-name="Path 20072" d="M-14.42-22.06l11.22-6.4a20.14,20.14,0,0,1,27.32,7.23l7,12.05A19.62,19.62,0,0,1,24.1,17.65l-.26.15L12.62,24.2A20.13,20.13,0,0,1-14.7,17l-7-12a19.62,19.62,0,0,1,7-26.83Z" transform="translate(24.42 42.08)" fill="#3e74ff"/>
          <path id="Path_20073" data-name="Path 20073" d="M2,27.64,32.22,10.38a9.06,9.06,0,0,1,12.3,3.25l18,30.86a8.83,8.83,0,0,1-3.17,12.08l-.12.07L29,73.9a9.06,9.06,0,0,1-12.3-3.26l-18-30.86A8.82,8.82,0,0,1,1.83,27.71Z" transform="translate(24.42 42.08)" fill="#3e74ff"/>
          <path id="Path_20074" data-name="Path 20074" d="M4.17-19.34,44.05-42.08l23,39.37L27.18,20Z" transform="translate(24.42 42.08)" fill="#2663ff"/>
          <path id="Path_20075" data-name="Path 20075" d="M17.2,11.11l23,39.34L.34,73.17l-23-39.34Z" transform="translate(24.42 42.08)" fill="#2663ff"/>
        </g>
      </g>
      <rect id="Rectangle_5040" data-name="Rectangle 5040" width="26" height="13" rx="3" transform="translate(137.67 46.07)" fill="#3e74ff"/>
      <g id="Docs" transform="translate(0 1)">
        <g id="Group_6738" data-name="Group 6738">
          <path id="Path_20097" data-name="Path 20097" d="M121.5,9.35a3.6,3.6,0,0,1-1,2.71,4,4,0,0,1-2.83.93h-2V5.85h2.21a3.65,3.65,0,0,1,2.65.92A3.43,3.43,0,0,1,121.5,9.35Zm-1.23,0c0-1.71-.8-2.56-2.4-2.56h-1V12h.83a2.3,2.3,0,0,0,2.57-2.61Z" transform="translate(24.42 42.08)" fill="#fff"/>
          <path id="Path_20098" data-name="Path 20098" d="M127.7,10.28a3,3,0,0,1-.68,2.07,2.44,2.44,0,0,1-1.89.74,2.69,2.69,0,0,1-1.34-.34,2.35,2.35,0,0,1-.89-1,3.36,3.36,0,0,1-.31-1.49,2.91,2.91,0,0,1,.67-2,2.45,2.45,0,0,1,1.9-.74,2.38,2.38,0,0,1,1.86.76,2.93,2.93,0,0,1,.68,2Zm-3.93,0c0,1.25.46,1.87,1.38,1.87s1.37-.62,1.37-1.87-.46-1.85-1.38-1.85a1.18,1.18,0,0,0-1,.48,2.48,2.48,0,0,0-.37,1.37Z" transform="translate(24.42 42.08)" fill="#fff"/>
          <path id="Path_20099" data-name="Path 20099" d="M131.2,13.09a2.38,2.38,0,0,1-1.87-.72,3,3,0,0,1-.63-2,3,3,0,0,1,.66-2.1,2.52,2.52,0,0,1,1.93-.73,3.66,3.66,0,0,1,1.54.32l-.35.92a3.48,3.48,0,0,0-1.2-.28c-.94,0-1.4.62-1.4,1.86a2.15,2.15,0,0,0,.35,1.36,1.19,1.19,0,0,0,1,.46,3,3,0,0,0,1.45-.38v1a2.22,2.22,0,0,1-.68.2A4,4,0,0,1,131.2,13.09Z" transform="translate(24.42 42.08)" fill="#fff"/>
          <path id="Path_20100" data-name="Path 20100" d="M137.6,11.45a1.45,1.45,0,0,1-.58,1.22,2.75,2.75,0,0,1-1.65.42,3.83,3.83,0,0,1-1.73-.33v-1a4.26,4.26,0,0,0,1.77.44c.71,0,1.06-.21,1.06-.64a.49.49,0,0,0-.12-.34,1.62,1.62,0,0,0-.38-.29q-.27-.13-.75-.33A3.46,3.46,0,0,1,134,9.89a1.33,1.33,0,0,1-.33-.94,1.2,1.2,0,0,1,.56-1.07,2.61,2.61,0,0,1,1.52-.39,4.29,4.29,0,0,1,1.8.39l-.37.86a4.09,4.09,0,0,0-1.47-.36c-.61,0-.91.17-.91.52a.52.52,0,0,0,.24.43,4.61,4.61,0,0,0,1,.48,4.32,4.32,0,0,1,1,.48,1.39,1.39,0,0,1,.45.49A1.41,1.41,0,0,1,137.6,11.45Z" transform="translate(24.42 42.08)" fill="#fff"/>
        </g>
      </g>
    </g>
  </g>
</svg>
